<svg width="30" height="30" viewBox="0 0 30 30" fill="none" xmlns="http://www.w3.org/2000/svg">
<path d="M1.25 0C0.55965 0 0 0.55965 0 1.25C0 1.94035 0.55965 2.5 1.25 2.5H1.86425C2.42235 2.5 2.91282 2.86997 3.06615 3.4066L7.03005 17.2802C7.49 18.8901 8.96145 20 10.6357 20H22.0575C23.5907 20 24.9697 19.0664 25.5392 17.6427L29.225 8.42847C29.8817 6.78632 28.6722 5 26.9037 5H6.12145L5.46995 2.7198C5.01 1.10992 3.53855 0 1.86425 0H1.25ZM9.43385 16.5934L6.83572 7.5H26.9037L23.218 16.7143C23.0282 17.1888 22.5685 17.5 22.0575 17.5H10.6357C10.0776 17.5 9.58717 17.13 9.43385 16.5934Z" fill="#212121"/>
<path d="M11.25 30C13.3211 30 15 28.321 15 26.25C15 24.179 13.3211 22.5 11.25 22.5C9.17893 22.5 7.5 24.179 7.5 26.25C7.5 28.321 9.17893 30 11.25 30ZM11.25 27.5C10.5596 27.5 10 26.9403 10 26.25C10 25.5597 10.5596 25 11.25 25C11.9404 25 12.5 25.5597 12.5 26.25C12.5 26.9403 11.9404 27.5 11.25 27.5Z" fill="#212121"/>
<path d="M21.25 30C23.321 30 25 28.321 25 26.25C25 24.179 23.321 22.5 21.25 22.5C19.1789 22.5 17.5 24.179 17.5 26.25C17.5 28.321 19.1789 30 21.25 30ZM21.25 27.5C20.5597 27.5 20 26.9403 20 26.25C20 25.5597 20.5597 25 21.25 25C21.9403 25 22.5 25.5597 22.5 26.25C22.5 26.9403 21.9403 27.5 21.25 27.5Z" fill="#212121"/>
</svg>
